<?xml version="1.0" encoding="UTF-8" standalone="no"?>
<!DOCTYPE svg PUBLIC "-//W3C//DTD SVG 1.1//EN"
 "http://www.w3.org/Graphics/SVG/1.1/DTD/svg11.dtd">
<!-- Generated by graphviz version 5.0.0 (20220707.1540)
 -->
<!-- Title: UmlClassDiagram Pages: 1 -->
<svg width="1909pt" height="246pt"
 viewBox="0.00 0.00 1909.00 246.00" xmlns="http://www.w3.org/2000/svg" xmlns:xlink="http://www.w3.org/1999/xlink">
<g id="graph0" class="graph" transform="scale(1 1) rotate(0) translate(4 242)">
<title>UmlClassDiagram</title>
<polygon fill="white" stroke="transparent" points="-4,4 -4,-242 1905,-242 1905,4 -4,4"/>
<!-- 0 -->
<g id="node1" class="node">
<title>0</title>
<polygon fill="#f2f2f2" stroke="black" points="0,-0.5 0,-100.5 357.39,-100.5 357.39,-0.5 0,-0.5"/>
<text text-anchor="middle" x="178.7" y="-83.9" font-family="Times,serif" font-size="14.00">&lt;&lt;Interface&gt;&gt;</text>
<text text-anchor="middle" x="178.7" y="-67.1" font-family="Times,serif" font-size="14.00">Isolution</text>
<text text-anchor="middle" x="178.7" y="-50.3" font-family="Times,serif" font-size="14.00">src/Level1Template.sol</text>
<polyline fill="none" stroke="black" points="0,-42.1 357.39,-42.1 "/>
<text text-anchor="start" x="8" y="-25.5" font-family="Times,serif" font-size="14.00">External:</text>
<text text-anchor="start" x="8" y="-8.7" font-family="Times,serif" font-size="14.00"> &#160;&#160;&#160;&#160;solution(x: uint256[2][3], y: uint256[2][3]): uint256[2][3]</text>
</g>
<!-- 1 -->
<g id="node2" class="node">
<title>1</title>
<polygon fill="#f2f2f2" stroke="black" points="375.24,-8.9 375.24,-92.1 804.15,-92.1 804.15,-8.9 375.24,-8.9"/>
<text text-anchor="middle" x="589.7" y="-75.5" font-family="Times,serif" font-size="14.00">Level1Template</text>
<text text-anchor="middle" x="589.7" y="-58.7" font-family="Times,serif" font-size="14.00">src/Level1Template.sol</text>
<polyline fill="none" stroke="black" points="375.24,-50.5 804.15,-50.5 "/>
<text text-anchor="start" x="383.24" y="-33.9" font-family="Times,serif" font-size="14.00">External:</text>
<text text-anchor="start" x="383.24" y="-17.1" font-family="Times,serif" font-size="14.00"> &#160;&#160;&#160;solution(x: uint256[2][3], y: uint256[2][3]): (finalArray: uint256[2][3])</text>
</g>
<!-- 2 -->
<g id="node3" class="node">
<title>2</title>
<polygon fill="#f2f2f2" stroke="black" points="822.55,-8.9 822.55,-92.1 1134.84,-92.1 1134.84,-8.9 822.55,-8.9"/>
<text text-anchor="middle" x="978.7" y="-75.5" font-family="Times,serif" font-size="14.00">Level2Template</text>
<text text-anchor="middle" x="978.7" y="-58.7" font-family="Times,serif" font-size="14.00">src/Level2Template.sol</text>
<polyline fill="none" stroke="black" points="822.55,-50.5 1134.84,-50.5 "/>
<text text-anchor="start" x="830.55" y="-33.9" font-family="Times,serif" font-size="14.00">External:</text>
<text text-anchor="start" x="830.55" y="-17.1" font-family="Times,serif" font-size="14.00"> &#160;&#160;&#160;solution(unsortedArray: uint256[10]): uint256[10]</text>
</g>
<!-- 3 -->
<g id="node4" class="node">
<title>3</title>
<polygon fill="#f2f2f2" stroke="black" points="1151.07,-137.5 1151.07,-237.5 1540.33,-237.5 1540.33,-137.5 1151.07,-137.5"/>
<text text-anchor="middle" x="1345.7" y="-220.9" font-family="Times,serif" font-size="14.00">&lt;&lt;Interface&gt;&gt;</text>
<text text-anchor="middle" x="1345.7" y="-204.1" font-family="Times,serif" font-size="14.00">Isolutiondirect</text>
<text text-anchor="middle" x="1345.7" y="-187.3" font-family="Times,serif" font-size="14.00">src/MatrixAddition.sol</text>
<polyline fill="none" stroke="black" points="1151.07,-179.1 1540.33,-179.1 "/>
<text text-anchor="start" x="1159.07" y="-162.5" font-family="Times,serif" font-size="14.00">External:</text>
<text text-anchor="start" x="1159.07" y="-145.7" font-family="Times,serif" font-size="14.00"> &#160;&#160;&#160;&#160;solutiondirect(x: uint256[2][2], y: uint256[2][2]): uint256[2][2]</text>
</g>
<!-- 4 -->
<g id="node5" class="node">
<title>4</title>
<polygon fill="#f2f2f2" stroke="black" points="1152.82,-8.9 1152.82,-92.1 1538.58,-92.1 1538.58,-8.9 1152.82,-8.9"/>
<text text-anchor="middle" x="1345.7" y="-75.5" font-family="Times,serif" font-size="14.00">MatrixAddition</text>
<text text-anchor="middle" x="1345.7" y="-58.7" font-family="Times,serif" font-size="14.00">src/MatrixAddition.sol</text>
<polyline fill="none" stroke="black" points="1152.82,-50.5 1538.58,-50.5 "/>
<text text-anchor="start" x="1160.82" y="-33.9" font-family="Times,serif" font-size="14.00">External:</text>
<text text-anchor="start" x="1160.82" y="-17.1" font-family="Times,serif" font-size="14.00"> &#160;&#160;&#160;solutiondirect(x: uint256[2][2], y: uint256[2][2]): uint256[2][2]</text>
</g>
<!-- 4&#45;&gt;3 -->
<g id="edge1" class="edge">
<title>4&#45;&gt;3</title>
<path fill="none" stroke="black" stroke-dasharray="5,2" d="M1345.7,-92.37C1345.7,-97.12 1345.7,-102.07 1345.7,-107.11"/>
<polygon fill="none" stroke="black" points="1335.2,-107.2 1345.7,-137.2 1356.2,-107.2 1335.2,-107.2"/>
</g>
<!-- 5 -->
<g id="node6" class="node">
<title>5</title>
<polygon fill="#f2f2f2" stroke="black" points="1558.39,-137.5 1558.39,-237.5 1901,-237.5 1901,-137.5 1558.39,-137.5"/>
<text text-anchor="middle" x="1729.7" y="-220.9" font-family="Times,serif" font-size="14.00">&lt;&lt;Interface&gt;&gt;</text>
<text text-anchor="middle" x="1729.7" y="-204.1" font-family="Times,serif" font-size="14.00">IsolutionLoop</text>
<text text-anchor="middle" x="1729.7" y="-187.3" font-family="Times,serif" font-size="14.00">src/MatrixAdditionWithLoop.sol</text>
<polyline fill="none" stroke="black" points="1558.39,-179.1 1901,-179.1 "/>
<text text-anchor="start" x="1566.39" y="-162.5" font-family="Times,serif" font-size="14.00">External:</text>
<text text-anchor="start" x="1566.39" y="-145.7" font-family="Times,serif" font-size="14.00"> &#160;&#160;&#160;&#160;sloop(x: uint256[2][2], y: uint256[2][2]): uint256[2][2]</text>
</g>
<!-- 6 -->
<g id="node7" class="node">
<title>6</title>
<polygon fill="#f2f2f2" stroke="black" points="1560.14,-8.9 1560.14,-92.1 1899.25,-92.1 1899.25,-8.9 1560.14,-8.9"/>
<text text-anchor="middle" x="1729.7" y="-75.5" font-family="Times,serif" font-size="14.00">MatrixAdditionWithLoop</text>
<text text-anchor="middle" x="1729.7" y="-58.7" font-family="Times,serif" font-size="14.00">src/MatrixAdditionWithLoop.sol</text>
<polyline fill="none" stroke="black" points="1560.14,-50.5 1899.25,-50.5 "/>
<text text-anchor="start" x="1568.14" y="-33.9" font-family="Times,serif" font-size="14.00">External:</text>
<text text-anchor="start" x="1568.14" y="-17.1" font-family="Times,serif" font-size="14.00"> &#160;&#160;&#160;sloop(x: uint256[2][2], y: uint256[2][2]): uint256[2][2]</text>
</g>
<!-- 6&#45;&gt;5 -->
<g id="edge2" class="edge">
<title>6&#45;&gt;5</title>
<path fill="none" stroke="black" stroke-dasharray="5,2" d="M1729.7,-92.37C1729.7,-97.12 1729.7,-102.07 1729.7,-107.11"/>
<polygon fill="none" stroke="black" points="1719.2,-107.2 1729.7,-137.2 1740.2,-107.2 1719.2,-107.2"/>
</g>
</g>
</svg>
