<?xml version="1.0" encoding="UTF-8" standalone="no"?>
<!DOCTYPE svg PUBLIC "-//W3C//DTD SVG 1.1//EN"
 "http://www.w3.org/Graphics/SVG/1.1/DTD/svg11.dtd">
<!-- Generated by graphviz version 5.0.0 (20220707.1540)
 -->
<!-- Title: UmlClassDiagram Pages: 1 -->
<svg width="1614pt" height="92pt"
 viewBox="0.00 0.00 1613.54 92.20" xmlns="http://www.w3.org/2000/svg" xmlns:xlink="http://www.w3.org/1999/xlink">
<g id="graph0" class="graph" transform="scale(1 1) rotate(0) translate(4 88.2)">
<title>UmlClassDiagram</title>
<polygon fill="white" stroke="transparent" points="-4,4 -4,-88.2 1609.54,-88.2 1609.54,4 -4,4"/>
<!-- 0 -->
<g id="node1" class="node">
<title>0</title>
<polygon fill="#f2f2f2" stroke="black" points="0,-0.5 0,-83.7 428.91,-83.7 428.91,-0.5 0,-0.5"/>
<text text-anchor="middle" x="214.46" y="-67.1" font-family="Times,serif" font-size="14.00">Level1MatrixAddition</text>
<text text-anchor="middle" x="214.46" y="-50.3" font-family="Times,serif" font-size="14.00">src/Level1MatrixAddition.sol</text>
<polyline fill="none" stroke="black" points="0,-42.1 428.91,-42.1 "/>
<text text-anchor="start" x="8" y="-25.5" font-family="Times,serif" font-size="14.00">External:</text>
<text text-anchor="start" x="8" y="-8.7" font-family="Times,serif" font-size="14.00"> &#160;&#160;&#160;solution(x: uint256[2][3], y: uint256[2][3]): (finalArray: uint256[2][3])</text>
</g>
<!-- 1 -->
<g id="node2" class="node">
<title>1</title>
<polygon fill="#f2f2f2" stroke="black" points="447.31,-0.5 447.31,-83.7 759.6,-83.7 759.6,-0.5 447.31,-0.5"/>
<text text-anchor="middle" x="603.46" y="-67.1" font-family="Times,serif" font-size="14.00">Level2ArraySort</text>
<text text-anchor="middle" x="603.46" y="-50.3" font-family="Times,serif" font-size="14.00">src/Level2ArraySort.sol</text>
<polyline fill="none" stroke="black" points="447.31,-42.1 759.6,-42.1 "/>
<text text-anchor="start" x="455.31" y="-25.5" font-family="Times,serif" font-size="14.00">External:</text>
<text text-anchor="start" x="455.31" y="-8.7" font-family="Times,serif" font-size="14.00"> &#160;&#160;&#160;solution(unsortedArray: uint256[10]): uint256[10]</text>
</g>
<!-- 2 -->
<g id="node3" class="node">
<title>2</title>
<polygon fill="#f2f2f2" stroke="black" points="777.18,-0.5 777.18,-83.7 1107.73,-83.7 1107.73,-0.5 777.18,-0.5"/>
<text text-anchor="middle" x="942.46" y="-67.1" font-family="Times,serif" font-size="14.00">Level3UnpackData</text>
<text text-anchor="middle" x="942.46" y="-50.3" font-family="Times,serif" font-size="14.00">src/Level3UnpackData.sol</text>
<polyline fill="none" stroke="black" points="777.18,-42.1 1107.73,-42.1 "/>
<text text-anchor="start" x="785.18" y="-25.5" font-family="Times,serif" font-size="14.00">External:</text>
<text text-anchor="start" x="785.18" y="-8.7" font-family="Times,serif" font-size="14.00"> &#160;&#160;&#160;solution(packed: bytes): (a: uint16, b: bool, c: bytes6)</text>
</g>
<!-- 3 -->
<g id="node4" class="node">
<title>3</title>
<polygon fill="#f2f2f2" stroke="black" points="1125.68,-0.5 1125.68,-83.7 1353.23,-83.7 1353.23,-0.5 1125.68,-0.5"/>
<text text-anchor="middle" x="1239.46" y="-67.1" font-family="Times,serif" font-size="14.00">Level4PowersOf2</text>
<text text-anchor="middle" x="1239.46" y="-50.3" font-family="Times,serif" font-size="14.00">src/Level4PowersOf2.sol</text>
<polyline fill="none" stroke="black" points="1125.68,-42.1 1353.23,-42.1 "/>
<text text-anchor="start" x="1133.68" y="-25.5" font-family="Times,serif" font-size="14.00">External:</text>
<text text-anchor="start" x="1133.68" y="-8.7" font-family="Times,serif" font-size="14.00"> &#160;&#160;&#160;solution(number: uint256): uint256</text>
</g>
<!-- 4 -->
<g id="node5" class="node">
<title>4</title>
<polygon fill="#f2f2f2" stroke="black" points="1371.37,-0.5 1371.37,-83.7 1605.54,-83.7 1605.54,-0.5 1371.37,-0.5"/>
<text text-anchor="middle" x="1488.46" y="-67.1" font-family="Times,serif" font-size="14.00">Level5Average</text>
<text text-anchor="middle" x="1488.46" y="-50.3" font-family="Times,serif" font-size="14.00">src/Level5Average.sol</text>
<polyline fill="none" stroke="black" points="1371.37,-42.1 1605.54,-42.1 "/>
<text text-anchor="start" x="1379.37" y="-25.5" font-family="Times,serif" font-size="14.00">External:</text>
<text text-anchor="start" x="1379.37" y="-8.7" font-family="Times,serif" font-size="14.00"> &#160;&#160;&#160;solution(a: int256, b: int256): int256</text>
</g>
</g>
</svg>
